<svg viewBox="0 0 12 12" width="60px" height="60px" xmlns="http://www.w3.org/2000/svg"><path fill-rule="evenodd" d="M 1,0 11,0 11,3 10,3 10,5 11,5 11,7 12,7 12,10 10,10 10,11 9,11 9,12 3,12 3,11 2,11 2,10 0,10 0,7 1,7 1,5 2,5 2,3 1,3z M 7,8 7,9 5,9 5,8z" fill="#4C90F0"/><path fill-rule="evenodd" d="M 2,1 3,1 3,2 2,2z" fill="#ffffff"/><path fill-rule="evenodd" d="M 4,1 5,1 5,2 7,2 7,1 8,1 8,3 9,3 9,4 7,4 7,3 5,3 5,4 3,4 3,3 4,3z" fill="#ffffff"/><path fill-rule="evenodd" d="M 9,1 10,1 10,2 9,2z" fill="#ffffff"/><path fill-rule="evenodd" d="M 2,6 3,6 3,7 2,7z" fill="#ffffff"/><path fill-rule="evenodd" d="M 4,6 5,6 5,7 4,7z" fill="#ffffff"/><path fill-rule="evenodd" d="M 7,6 8,6 8,7 7,7z" fill="#ffffff"/><path fill-rule="evenodd" d="M 9,6 10,6 10,7 9,7z" fill="#ffffff"/><path fill-rule="evenodd" d="M 1,8 2,8 2,9 1,9z" fill="#ffffff"/><path fill-rule="evenodd" d="M 10,8 11,8 11,9 10,9z" fill="#ffffff"/><path fill-rule="evenodd" d="M 3,9 4,9 4,10 3,10z" fill="#ffffff"/><path fill-rule="evenodd" d="M 8,9 9,9 9,10 8,10z" fill="#ffffff"/><path fill-rule="evenodd" d="M 4,10 8,10 8,11 4,11z" fill="#ffffff"/></svg>